<?xml version="1.0" encoding="UTF-8"?>
<svg version="1.1" xmlns="http://www.w3.org/2000/svg" width="180" height="180">
<path class="head" d="M0 0 C2.00565553 -0.00960103 4.01117073 -0.04074608 6.01660156 -0.07226562 C28.57176292 -0.16194818 47.34372759 9.36333095 63.74707031 24.29492188 C65.54003906 26.24023438 65.54003906 26.24023438 66.54003906 29.24023438 C67.20003906 29.24023438 67.86003906 29.24023438 68.54003906 29.24023438 C70.25968348 31.54108265 71.85078516 33.83684719 73.41503906 36.24023438 C74.06666016 37.21283203 74.06666016 37.21283203 74.73144531 38.20507812 C86.05354407 55.37522789 91.55431669 76.76453051 87.54003906 97.24023438 C84.64912947 109.76750926 78.46496009 122.10370748 70.54003906 132.24023438 C69.88003906 132.24023438 69.22003906 132.24023438 68.54003906 132.24023438 C68.29253906 132.9752417 68.04503906 133.71024902 67.79003906 134.4675293 C66.41363053 137.52062925 64.90568063 139.24764289 62.54003906 141.60351562 C61.33154297 142.81104492 61.33154297 142.81104492 60.09863281 144.04296875 C59.25429687 144.87119141 58.40996094 145.69941406 57.54003906 146.55273438 C56.72664062 147.36935547 55.91324219 148.18597656 55.07519531 149.02734375 C41.84584089 162.14175118 22.17616891 179.79519162 2.72753906 181.11523438 C-6.12681565 180.67398746 -13.04694586 176.77050899 -20.45996094 172.24023438 C-21.12817871 171.83337402 -21.79639648 171.42651367 -22.48486328 171.00732422 C-32.60163751 164.71401995 -41.30506646 157.22990718 -49.78076172 148.88867188 C-51.35519572 147.34308037 -52.94837571 145.8202616 -54.54980469 144.30273438 C-61.76339701 137.34787923 -61.76339701 137.34787923 -63.45996094 132.24023438 C-64.11996094 132.24023438 -64.77996094 132.24023438 -65.45996094 132.24023438 C-67.16994775 129.85533241 -68.73824686 127.48557854 -70.27246094 124.99023438 C-70.72169922 124.26457275 -71.1709375 123.53891113 -71.63378906 122.79125977 C-75.24261726 116.84049063 -78.1376493 110.80993178 -80.45996094 104.24023438 C-80.87246094 103.12648438 -81.28496094 102.01273437 -81.70996094 100.86523438 C-86.55766807 77.4346499 -81.22509563 55.95361546 -68.45996094 36.24023438 C-66.86804556 33.81831592 -65.23386095 31.54039139 -63.45996094 29.24023438 C-62.79996094 29.24023438 -62.13996094 29.24023438 -61.45996094 29.24023438 C-61.2240625 28.67046875 -60.98816406 28.10070312 -60.74511719 27.51367188 C-53.72823311 15.10082526 -36.1951712 6.76706179 -23.08496094 2.99023438 C-20.88012849 2.3938052 -18.67218983 1.8086156 -16.45996094 1.24023438 C-15.87069824 1.06298828 -15.28143555 0.88574219 -14.67431641 0.703125 C-9.88045758 -0.29898705 -4.8789969 0.0140808 0 0 Z " fill="#CBD5DC" transform="translate(87.4599609375,-0.240234375)"/>
<path class="eye" d="M0 0 C3.16205926 2.15045479 4.50512613 3.96787513 5.3515625 7.71875 C5.97228519 19.84671636 0.02485255 29.83300966 -7.24609375 39.0703125 C-7.83003906 39.83085938 -8.41398437 40.59140625 -9.015625 41.375 C-17.60542618 51.82743175 -30.34689476 60.40963573 -43.88671875 62.47265625 C-48.43403291 62.6608729 -51.68185395 62.11039939 -55.24609375 59.0703125 C-58.57717097 55.27977636 -58.75914116 51.59996485 -58.59375 46.74609375 C-56.68611536 32.06373722 -45.34552859 18.36504744 -34.03125 9.44921875 C-24.6985324 2.50083303 -11.86224504 -4.90993795 0 0 Z " fill="#2B3135" transform="translate(153.24609375,57.9296875)"/>
<path class="eye" d="M0 0 C3.91576111 2.38856143 7.45743111 5.09231921 11 8 C11.7940625 8.63035156 12.588125 9.26070312 13.40625 9.91015625 C23.1032331 17.99651031 32.93004058 30.37056712 34.23828125 43.3671875 C34.40741922 49.08227062 34.06395248 52.60653786 30 57 C25.55057688 59.87903849 20.10410212 59.66296298 15 59 C-1.50353591 54.55847462 -15.10064219 41.20486692 -23.4375 26.75 C-28.01491295 18.57538778 -30.31916705 11.41885272 -29 2 C-21.87091268 -7.82657982 -9.53088823 -4.34442536 0 0 Z " fill="#2B3135" transform="translate(51,61)"/>
<path  class="mouth" d="M0 0 C1.60875 0.7734375 1.60875 0.7734375 3.25 1.5625 C8.07433137 3.69149841 13.04639108 3.90922663 18.09375 2.35546875 C21.28655473 1.06456648 21.28655473 1.06456648 24 -1 C26.83359542 -1.2982732 28.43785378 -1.35602594 30.875 0.1875 C32 2 32 2 32 4.4375 C30.2851957 8.83168602 26.98973376 10.41037138 23.0625 12.75 C15.953722 15.56551164 6.85888301 15.17536821 -0.125 12.25 C-3.26823504 10.57282608 -6.03079768 9.04331267 -8 6 C-7.875 2.8125 -7.875 2.8125 -7 0 C-4.22964542 -1.38517729 -2.98568368 -0.79618231 0 0 Z " fill="#2F363A" transform="translate(78,141)"/>
</svg>
